/* XPM */
static char *adminConsole[] = {
"48 48 257 2 0 0",
"   c #000000",
"!  c #000003",
"#  c #193E05",
"$  c #152E07",
"%  c #0C170A",
"&  c #225A0B",
"'  c #21430E",
"(  c #522211",
")  c #CA8D13",
"*  c #020A14",
"+  c #976A15",
",  c #8F3417",
"-  c #287B17",
".  c #EFA919",
"/  c #0B141A",
"0  c #2E6E1A",
"1  c #AC391B",
"2  c #85661C",
"3  c #1D1D1D",
"4  c #CF381E",
"5  c #70571E",
"6  c #91721F",
"7  c #3AA31F",
"8  c #3B8B20",
"9  c #40A422",
":  c #2DAD22",
";  c #0C1723",
"<  c #459924",
"=  c #32B624",
">  c #625225",
"?  c #121C26",
"@  c #BD4528",
"A  c #17232A",
"B  c #CE982A",
"C  c #2FC22B",
"D  c #0EC52B",
"E  c #1F302C",
"F  c #16D52C",
"G  c #3CAB2D",
"H  c #312E2E",
"I  c #A4492E",
"J  c #FFC72E",
"K  c #212830",
"L  c #B84B32",
"M  c #1CCB32",
"N  c #9F7D33",
"O  c #D35035",
"P  c #3BBB36",
"Q  c #1B2B37",
"R  c #383737",
"S  c #283339",
"T  c #23AA39",
"U  c #CB563A",
"V  c #403D3B",
"W  c #1E303C",
"X  c #EA543C",
"Y  c #B65840",
"Z  c #EBB742",
"[  c #313C43",
"\  c #62B643",
"]  c #1B3645",
"^  c #253947",
"_  c #474848",
"`  c #36AD48",
"a  c #384649",
"b  c #E6634B",
"c  c #D2A84B",
"d  c #56C74D",
"e  c #29414E",
"f  c #CE5A50",
"g  c #4F4F51",
"h  c #002B53",
"i  c #6EBE53",
"j  c #2B4554",
"k  c #9C8957",
"l  c #1E4158",
"m  c #46A258",
"n  c #324B59",
"o  c #565759",
"p  c #579D59",
"q  c #3B525B",
"r  c #D16D5B",
"s  c #EF6E5B",
"t  c #43555C",
"u  c #47765C",
"v  c #74C55C",
"w  c #00345D",
"x  c #52635D",
"y  c #5BC55D",
"z  c #5AD65E",
"{  c #324F60",
"|  c #605F60",
"}  c #C3A560",
"~  c #2E5161",
" ! c #806061",
"!! c #5B5E62",
"#! c #626364",
"$! c #455965",
"%! c #365567",
"&! c #596667",
"'! c #696767",
"(! c #DB6D67",
")! c #6BD767",
"*! c #646568",
"+! c #083D69",
",! c #46616A",
"-! c #66686B",
".! c #696A6C",
"/! c #123F6D",
"0! c #0E406D",
"1! c #E6786D",
"2! c #67CB6D",
"3! c #435F71",
"4! c #696E71",
"5! c #71BB72",
"6! c #3C5E73",
"7! c #557073",
"8! c #6D7173",
"9! c #85C173",
":! c #707174",
";! c #506875",
"<! c #9F9675",
"=! c #3D6276",
">! c #617476",
"?! c #004877",
"@! c #1A4A77",
"A! c #6D7A77",
"B! c #737578",
"C! c #6B7978",
"D! c #466779",
"E! c #65787A",
"F! c #23507B",
"G! c #244F7C",
"H! c #767A7D",
"I! c #797C7E",
"J! c #76817E",
"K! c #699D7F",
"L! c #ACA180",
"M! c #295881",
"N! c #516B82",
"O! c #7A7B82",
"P! c #607D83",
"Q! c #567584",
"R! c #9D9784",
"S! c #83C184",
"T! c #446C85",
"U! c #365E87",
"V! c #688387",
"W! c #95D387",
"X! c #396389",
"Y! c #838789",
"Z! c #4B768A",
"[! c #77888A",
"\! c #AE898A",
"]! c #D4C08A",
"^! c #8EE28B",
"_! c #DA958F",
"`! c #588292",
"a! c #898D92",
"b! c #456C93",
"c! c #637893",
"d! c #005C95",
"e! c #3E6A96",
"f! c #678A96",
"g! c #768C96",
"h! c #497398",
"i! c #4E8198",
"j! c #799298",
"k! c #567999",
"l! c #87969A",
"m! c #D79C9A",
"n! c #96999B",
"o! c #00609C",
"p! c #999CA0",
"q! c #94CFA0",
"r! c #9EDEA0",
"s! c #5A7CA2",
"t! c #607FA2",
"u! c #5B86A5",
"v! c #6786A5",
"w! c #869AA5",
"x! c #4B81A7",
"y! c #739BA7",
"z! c #87A3A8",
"{! c #5B92A9",
"|! c #6697A9",
"}! c #A5A7A9",
"~! c #2C78AA",
" # c #718BAA",
"!# c #96A9AA",
"## c #0069AB",
"$# c #72A2AD",
"%# c #E1AEAF",
"&# c #639AB0",
"'# c #96AFB1",
"(# c #A6D5B1",
")# c #B2B2B2",
"*# c #75A6B3",
"+# c #828FB4",
",# c #688DB5",
"-# c #5C95B5",
".# c #7A96B7",
"/# c #8AB1B7",
"0# c #89ACB8",
"1# c #97B3B8",
"2# c #68A3B9",
"3# c #8598BC",
"4# c #A5B7BC",
"5# c #B9BABE",
"6# c #1B7BBF",
"7# c #929EC1",
"8# c #A7AFC3",
"9# c #B6C3C3",
":# c #6FAEC4",
";# c #99BBC4",
"<# c #99A6C5",
"=# c #88B9C5",
"># c #7AB5C8",
"?# c #A5B9C8",
"@# c #8DC2CA",
"A# c #A4C6CA",
"B# c #C6C8CC",
"C# c #97C4CD",
"D# c #B4BCD3",
"E# c #7DBDD3",
"F# c #A6CED3",
"G# c #C7C9D5",
"H# c #B4C5D6",
"I# c #94C8D6",
"J# c #7EC5D9",
"K# c #A5D2DB",
"L# c #C1D9DB",
"M# c #DAE8DB",
"N# c #B3D5DC",
"O# c #96D0DE",
"P# c #8DCDDF",
"Q# c #91CFE0",
"R# c #C9DDE2",
"S# c #C9CFE3",
"T# c #B7DEE3",
"U# c #D8E3E4",
"V# c #A8DBE5",
"W# c #96D7E7",
"X# c #B2E2EB",
"Y# c #C9E7EB",
"Z# c #A9E3EE",
"[# c #C0EAF0",
"\# c #8EDDF3",
"]# c #A8E6F3",
"^# c #B3EAF5",
"_# c #B5F1FB",
"`# c #CAF7FC",
"a# c #E9FBFD",
"b# c #F8FCFD",
"c# c #D6FAFE",
"d# c #FFFFFF",
"e# c None",
"e#e#e#e#e#e#e#e#e#e#e#e#e#e#e#e#e#e#e#e#e#e#e#e#e#e#e#e#e#e#e#e#e#e#e#e#e#e#e#e#e#e#e#e#e#e#e#e#",
"e#e#e#e#e#e#e#e#e#e#e#e#e#e#e#e#e#e#e#e#e#e#e#e#e#e#e#e#e#e#e#e#e#e#e#e#e#e#e#e#e#e#e#e#e#e#e#e#",
"e#e#e#e#e#e#e#e#e#e#e#e#e#e#e#e#e#e#e#e#e#e#e#e#e#e#e#e#e#e#e#e#e#e#e#e#e#e#e#e#e#e#e#e#e#e#e#e#",
"e#e#e#e#e#e#e#e#e#e#e#e#e#e#e#e#e#e#e#e#e#e#e#e#e#e#e#e#e#e#e#e#e#e#e#e#e#e#e#e#e#e#e#e#e#e#e#e#",
"e#e#e#e#e#e#e#e#e#e#e#e#e#e#e#e#e#e#e#e#e#e#e#e#e#e#e#e#e#e#e#e#e#e#e#e#e#e#e#e#e#e#e#e#e#e#e#e#",
"e#e#e#e#e#e#e#e#e#e#e#e#e#e#e#e#e#e#e#e#e#e#e#e#e#e#e#e#e#e#e#e#e#e#e#e#e#e#e#e#e#e#e#e#e#e#e#e#",
"e#e#e#e#e#e#e#)#4!:!:!:!:!8!8!8!8!4!4!.!.!-!-!*!*!#!#!#!#!#!*!.!:!H!H!H!B!B!:!.!)#e#e#e#e#e#e#e#",
"e#e#e#e#e#e#e#Y!  ! ! ! * * * * * * / / ; ; ; ; ; ? ? ; ; ; ; / / * * * * * !   n!g e#e#e#e#e#e#",
"e#e#e#e#e#e#e#Y!! / / / ; / ; ? A A A Q Q W W W W W W W W Q ^ W A A A ? ; ; / * p!g e#e#e#e#e#e#",
"e#e#e#e#e#e#e#Y!! / / / ; ? A A Q Q e e ] ^ ^ ^ e e e e ^ ^ ^ ] W W Q Q Q A ? * p!g e#e#e#e#e#e#",
"e#e#e#e#e#e#e#O!* / ; ? A A Q W W ^ ^ e j j j n n n { n n n j e e ^ ^ W W Q A ; n!_ e#e#e#e#e#e#",
"e#e#e#e#e#e#e#O!* ; ? A Q W ^ ^ e j n { { %!%!%!%!%!%!%!6!%!%!{ n j j e ^ W W ? n!_ e#e#e#e#e#e#",
"e#e#e#e#e#e#e#I!/ A K W ] e n q t $!$!3!=!D!Z!`!Z!Z!Z!Z!T!6!6!6!6!%!{ n j e ^ Q a!_ e#e#e#e#e#e#",
"e#e#e#e#e#e#e#I!; Q W ^ e q t $!7!P!V!`!f!|!&#2#&#{!&#2#2#{!Z!Q!T!T!6!%!{ n j ] a!V e#e#e#e#e#e#",
"e#e#e#e#e#e#e#I!A W ^ j q ,!Q!`!f!w!j!y!*#$#&#2#2#{!{!2#&#&#2#*#&#i!T!=!6!%!{ e Y!V e#e#e#e#e#e#",
"e#e#e#e#e#e#e#H!Q ^ j q ;!f!{!&#y!0#;#/#0#=#@#Q#W#O#O#Q#=#*#2#>#>#2#i!T!T!T!=!~ Y!R e#e#e#e#e#e#",
"e#e#e#e#e#e#e#H!] j { ;!f!y!$#:#>#@#C#I#V#X#^#^#^#^#]#^#]#Z#V#V#P#>#>#{!{!i!T!%!Y!R e#e#e#e#e#e#",
"e#e#e#e#e#e#e#H!e %!Z!|!y!*#>#K#Z#^#[#c#c#c#c#c#`#c#c#c#c#c#c#`#_#Z#Z#Q#E#-#v!T!Y!R e#e#e#e#e#e#",
"e#e#e#e#e#e#e#J!6!i!2#:#E#O#Z#`#c#c#c#a#b#U#N#A#X#X#V#K#K#K#[#`#`#`#`#`#^#P#E#2#l!H e#e#e#e#e#e#",
"e#e#e#e#e#e#e#[!{!E#E#W#_#`#`#N#Y#L#9#U#b#R#;#=#I#C#@#@#*#y!$#*#y!I#V#K#X#_#]#\#z!H e#e#e#e#e#e#",
"e#e#e#e#e#e#e#g!J#]#_#X#A#?#w!j!z!C!!#!#!#w!/#K#F#F#F#A#A#K#;#1#;#;#A#;#j!*#@#]#!#H e#e#e#e#e#e#",
"e#e#e#e#e#e#e#l!]#O#1#j![!j!P!A#[!P!P!&!V!7![!A#A#;#z!;#T#A#;#F#A#'#'#;#!#w!g!z!p!H e#e#e#e#e#e#",
"e#e#e#e#e#e#e#l!1#[!H!a!'#l!J!A!a ,!$!7!t a E!j!j!1#4#'#w!7!q z![!V!'#!#l!g!l!;!Y!H e#e#e#e#e#e#",
"e#e#e#e#e#e#e#B!a K [ &!4!o H 3 C!l!l!j![ Q Q Q Q >!'#V!a K A ^ A E x Q!n ; { ; #!R e#e#e#e#e#e#",
"e#e#e#e#e#e#e#!!! ! ! ! ! ! ! ! H A!Y!_ / / / ; ; A [ ? ; / / % % % ! $!t ^ ~ ] 4!R e#e#e#e#e#e#",
"e#e#e#e#e#e#e#!!  ! !             R 3                                 A V o f!/ *!R e#e#e#e#e#e#",
"e#e#e#e#e#e#e#Y!-!-!*!*!*!-!.!.!'!4!.!*!o o o o g g g g o !!!!!!#!#!.!#!| :!a!| Y!H e#e#e#e#e#e#",
"e#e#e#e#e#e#e#e#V R V V V R V _ 3!q _ V | :!8!8!4!4!8!o R R V [ %!q V R R R R V R e#e#e#e#e#e#e#",
"e#e#e#e#e#e#e#e#e#e#e#e#e#e#e#h e#e#e#e#H!a!a!a!a!a!a!>!e#e#e#e#e#e#w e#e#e#e#e#e#e#e#e#e#e#e#e#",
"e#e#e#e#e#e#e#e#e#e#e#e#e#e#e#e#e#e#e#e#5#G#B#B#B#B#G#4#? e#e#e#e#e#e#e#d!e#e#e#e#e#e#e#e#e#e#e#",
"e#e#e#e#e#e#e#e#e#e#e#e#6#e#e#e#e#e#e#}!p!p!p!p!p!p!p!p!4!e#e#e#e#e#e#e#e#e#o!e#N!x!k!h!X!e e#e#",
"e#e#e#e#e# #t!6!$!e#e#e#e#e#e#e#e#e#e#e#l Q 3 3 3 3 3 3 ] e#e#e#e#e#e#e#e#e#e#e#-#v!t!h!h!,!e#e#",
"e#e#e#e# #b!b!e!h!M!e#e#e#e#e#e#e#e#e#e#?!e#e#e#e#e#e#e#e#+!e#e#e#e#e#e#e#e#e#e#Q!b!X!U!U!,!e#e#",
"e#e#e#e#.#t!s!h!s![ e#e#e#e#e#e#e#e#e#e#e#e#e#e#e#e#e#e#e#o!e#e#e#e#e#e#e#e#e#e#Q!M!F!@!F!,!e#e#",
"e#e#e#e#t!/!@!/!U!S e#e#e#e#e#e#e#e#e#e#e#e#e#e#e#e#e#e#e#e#e#e#e#e#e#e#e#e#e#e#D#H#H#<#.#,!e#e#",
"e#e#e#e#.#v!t!h!s!S e#e#e#e#e#e#e#e#e#e#e#e#e#e#e#e#e#e#e#e###e#e#e#e#e#e#e#e#e#?#D#7#3#3#,!e#e#",
"e#e#e#e#;#S#D#<#.#S e#e#e#e#e#e#e#e#e#e#e#e#e#e#e#e#e#e#e#e#e#e#e#e#e#e#e#e#e#e#y z m g!3#;!e#e#",
"e#e#e#e#<#G#v!3#.#S e#e#e#e#e#e#e#e#~!e#e#e#e#e#e#e#e#e#e#e#e#~!b!b!k!s!e#e#e#P F D )!p k![ e#e#",
"e#e#e#e#2!2!K!+#.#S e#e#e#e#e#X!h!b!X!N!e#e#e#e#e#e#e#e#e#e#e#,#s!k!b!e!t e#e#d ` q!r!G % e#e#e#",
"e#e#e#C F M )!u %!e#e#e#e#e#e#t!t!k!b!k!e#e#e#e#e#e#e#e#e#e#e#{!t!s!h!h!t e#e#v M#S!: 8 e#e#e#e#",
"e#e#W!P T (#^!- e#e#e#e#e#e#e#b!b!X!M!h!e#e#e#e#e#e#e#e#e#e#e#x!0!0!+!@!t e#e#& \ 9 < $ e#e#e#e#",
"e#e#9!W!M#5!= 0 e#e#e#e#e#e#e#M!G!F!@!Z!e#e#e#e#e#e#e#e#e#e#e# #+#.#v!t!t e#e#e#e#$ e#e#e#e#e#e#",
"e#e#e#8 i 7 < % e#e#e#e#e#e#L!]!8#8#3#v!e#e#e#e#e#e#e#e#e#e#L X b \!7#3#t e#e#e#e#e#e#e#e#e#e#e#",
"e#e#e#e## ' e#e#e#e#e#e#e#e#} N R! #3#v!e#e#e#e#e#e#e#e#e#Y s (!1!O O!.#t e#e#e#e#e#e#e#e#e#e#e#",
"e#e#e#e#e#e#e#e#e#e#e#e#e#k B + c c!3# #e#e#e#e#e#e#e#e#e#U f b#%#4  !,#t e#e#e#e#e#e#e#e#e#e#e#",
"e#e#e#e#e#e#e#e#e#e#e#e#e#Z . ) J <!t!N!e#e#e#e#e#e#e#e#e#I r m!_!@ R n e#e#e#e#e#e#e#e#e#e#e#e#",
"e#e#e#e#e#e#e#e#e#e#e#e#e#2 2 5 6 > e#e#e#e#e#e#e#e#e#e#e#e#, 1 1 ( e#e#e#e#e#e#e#e#e#e#e#e#e#e#",
"e#e#e#e#e#e#e#e#e#e#e#e#e#e#e#e#e#e#e#e#e#e#e#e#e#e#e#e#e#e#e#e#e#e#e#e#e#e#e#e#e#e#e#e#e#e#e#e#"
};
